<svg width="71" height="71" viewBox="0 0 71 71" fill="none" xmlns="http://www.w3.org/2000/svg">
<rect width="71" height="71" rx="35.5" fill="#2B2B2B"/>
<path d="M38.16 22C40.1333 22 41.8533 22.3733 43.32 23.12C44.8133 23.8667 46.04 24.9067 47 26.24C47.96 27.5467 48.6667 29.04 49.12 30.72C49.6 32.4 49.84 34.16 49.84 36C49.84 38.56 49.4133 40.9067 48.56 43.04C47.7333 45.1467 46.4533 46.84 44.72 48.12C43.0133 49.3733 40.8267 50 38.16 50H27.96C27.64 50 27.36 49.88 27.12 49.64C26.88 49.4 26.76 49.12 26.76 48.8V23.2C26.76 22.88 26.88 22.6 27.12 22.36C27.36 22.12 27.64 22 27.96 22H38.16ZM37.76 47.64C40.0267 47.64 41.8533 47.12 43.24 46.08C44.6267 45.04 45.64 43.64 46.28 41.88C46.9467 40.0933 47.28 38.1333 47.28 36C47.28 34.4533 47.0933 32.9867 46.72 31.6C46.3733 30.1867 45.8133 28.9467 45.04 27.88C44.2933 26.7867 43.3067 25.9333 42.08 25.32C40.88 24.68 39.44 24.36 37.76 24.36H29L29.28 24V48.04L29.04 47.64H37.76Z" fill="#F0F0F0"/>
</svg>
